<svg xmlns="http://www.w3.org/2000/svg" xmlns:xlink="http://www.w3.org/1999/xlink" width="500" zoomAndPan="magnify" viewBox="0 0 375 374.999991" height="500" preserveAspectRatio="xMidYMid meet" version="1.0"><defs><g/><clipPath id="id1"><path d="M 176 110.613281 L 198 110.613281 L 198 153 L 176 153 Z M 176 110.613281 " clip-rule="nonzero"/></clipPath></defs><rect x="-37.5" width="450" fill="#ffffff" y="-37.499999" height="449.999989" fill-opacity="1"/><rect x="-37.5" width="450" fill="#f7f9f7" y="-37.499999" height="449.999989" fill-opacity="1"/><rect x="-37.5" width="450" fill="#ffffff" y="-37.499999" height="449.999989" fill-opacity="1"/><rect x="-37.5" width="450" fill="#f7f9f7" y="-37.499999" height="449.999989" fill-opacity="1"/><path fill="#79c44f" d="M 155.703125 140.773438 C 155.703125 140.773438 182.128906 138.96875 182.308594 167.335938 C 153.890625 167.15625 155.703125 140.773438 155.703125 140.773438 Z M 155.703125 140.773438 " fill-opacity="1" fill-rule="nonzero"/><path fill="#79c44f" d="M 183.855469 168.882812 L 182.300781 168.871094 C 173.132812 168.8125 166.003906 166.113281 161.109375 160.847656 C 153.445312 152.605469 154.136719 141.152344 154.167969 140.671875 L 154.261719 139.339844 L 155.597656 139.246094 C 155.597656 139.246094 155.972656 139.21875 156.636719 139.21875 C 161.152344 139.21875 183.675781 140.574219 183.84375 167.328125 Z M 157.226562 142.292969 C 157.3125 145.421875 158.089844 153.109375 163.378906 158.78125 C 167.394531 163.089844 173.230469 165.433594 180.734375 165.765625 C 179.8125 144.734375 163.289062 142.421875 157.226562 142.292969 Z M 157.226562 142.292969 " fill-opacity="1" fill-rule="nonzero"/><path fill="#79c44f" d="M 187.179688 112.859375 C 187.179688 112.859375 207.144531 130.238281 187.179688 150.425781 C 167.214844 130.238281 187.179688 112.859375 187.179688 112.859375 Z M 187.179688 112.859375 " fill-opacity="1" fill-rule="nonzero"/><g clip-path="url(#id1)"><path fill="#79c44f" d="M 187.179688 152.605469 L 186.085938 151.5 C 179.644531 144.988281 176.515625 138.046875 176.785156 130.871094 C 177.207031 119.628906 185.804688 112.023438 186.171875 111.703125 L 187.179688 110.828125 L 188.1875 111.703125 C 188.554688 112.023438 197.152344 119.628906 197.574219 130.871094 C 197.839844 138.046875 194.714844 144.988281 188.273438 151.5 Z M 187.179688 115.011719 C 185.019531 117.289062 180.132812 123.273438 179.855469 131.011719 C 179.640625 136.894531 182.105469 142.667969 187.179688 148.199219 C 192.253906 142.667969 194.714844 136.894531 194.503906 131.011719 C 194.226562 123.273438 189.339844 117.289062 187.179688 115.011719 Z M 187.179688 115.011719 " fill-opacity="1" fill-rule="nonzero"/></g><path fill="#79c44f" d="M 219.402344 140.773438 C 219.402344 140.773438 192.976562 138.96875 192.792969 167.335938 C 221.210938 167.15625 219.402344 140.773438 219.402344 140.773438 Z M 219.402344 140.773438 " fill-opacity="1" fill-rule="nonzero"/><path fill="#79c44f" d="M 191.246094 168.882812 L 191.257812 167.328125 C 191.429688 140.574219 213.953125 139.21875 218.464844 139.21875 C 219.128906 139.21875 219.507812 139.246094 219.507812 139.246094 L 220.835938 139.339844 L 220.933594 140.671875 C 220.964844 141.152344 221.660156 152.601562 213.996094 160.847656 C 209.101562 166.113281 201.972656 168.8125 192.800781 168.871094 Z M 217.882812 142.292969 C 211.820312 142.421875 195.292969 144.730469 194.367188 165.765625 C 201.886719 165.433594 207.726562 163.082031 211.742188 158.761719 C 217.035156 153.066406 217.800781 145.414062 217.882812 142.292969 Z M 217.882812 142.292969 " fill-opacity="1" fill-rule="nonzero"/><g fill="#746e6e" fill-opacity="1"><g transform="translate(57.474211, 205.716051)"><g><path d="M 0.359375 0 L 11.25 -24.828125 L 11.796875 -24.828125 L 22.671875 0 L 18.671875 0 L 15.9375 -6.59375 L 5.046875 -6.59375 L 2.34375 0 Z M 5.609375 -7.984375 L 15.34375 -7.984375 L 10.515625 -19.84375 Z M 5.609375 -7.984375 "/></g></g></g><g fill="#746e6e" fill-opacity="1"><g transform="translate(80.508878, 205.716051)"><g><path d="M 8.34375 0.4375 C 6.226562 0.4375 4.46875 -0.285156 3.0625 -1.734375 C 1.65625 -3.191406 0.953125 -5.25 0.953125 -7.90625 C 0.953125 -10.570312 1.703125 -12.753906 3.203125 -14.453125 C 4.703125 -16.148438 6.613281 -17 8.9375 -17 C 10.226562 -17 11.679688 -16.679688 13.296875 -16.046875 L 12.921875 -13.625 C 10.773438 -14.75 8.929688 -15.3125 7.390625 -15.3125 C 6.128906 -14.675781 5.21875 -13.648438 4.65625 -12.234375 C 4.09375 -10.816406 3.8125 -9.425781 3.8125 -8.0625 C 3.8125 -6.207031 4.351562 -4.660156 5.4375 -3.421875 C 6.519531 -2.191406 7.816406 -1.578125 9.328125 -1.578125 C 10.847656 -1.578125 12.242188 -1.90625 13.515625 -2.5625 L 13.515625 -1.28125 C 11.753906 -0.132812 10.03125 0.4375 8.34375 0.4375 Z M 8.34375 0.4375 "/></g></g></g><g fill="#746e6e" fill-opacity="1"><g transform="translate(95.377041, 205.716051)"><g><path d="M 10.4375 -3.875 L 10.4375 -7.65625 C 8.675781 -7.53125 7.234375 -7.140625 6.109375 -6.484375 C 4.992188 -5.828125 4.4375 -5.117188 4.4375 -4.359375 C 4.4375 -3.597656 4.628906 -2.941406 5.015625 -2.390625 C 5.410156 -1.847656 5.910156 -1.46875 6.515625 -1.25 C 7.328125 -1.394531 8.179688 -1.796875 9.078125 -2.453125 C 9.984375 -3.109375 10.4375 -3.582031 10.4375 -3.875 Z M 13.4375 -4.875 C 13.4375 -3.132812 14.070312 -1.816406 15.34375 -0.921875 L 13.4375 0.46875 L 10.46875 -2.203125 C 8.539062 -0.441406 6.757812 0.4375 5.125 0.4375 C 4.050781 0.4375 3.128906 0.0976562 2.359375 -0.578125 C 1.585938 -1.265625 1.203125 -2.125 1.203125 -3.15625 C 1.203125 -4.195312 1.515625 -5.0625 2.140625 -5.75 C 2.765625 -6.4375 3.585938 -6.960938 4.609375 -7.328125 C 6.367188 -7.984375 8.3125 -8.394531 10.4375 -8.5625 L 10.4375 -12.015625 C 10.4375 -14.035156 9.265625 -15.046875 6.921875 -15.046875 C 5.578125 -15.046875 3.988281 -14.753906 2.15625 -14.171875 L 1.828125 -15.09375 C 2.316406 -15.476562 3.164062 -15.890625 4.375 -16.328125 C 5.582031 -16.773438 6.734375 -17 7.828125 -17 C 8.929688 -17 9.851562 -16.847656 10.59375 -16.546875 C 11.34375 -16.253906 11.894531 -15.925781 12.25 -15.5625 C 12.601562 -15.195312 12.878906 -14.695312 13.078125 -14.0625 C 13.273438 -13.425781 13.382812 -12.925781 13.40625 -12.5625 C 13.425781 -12.195312 13.4375 -11.707031 13.4375 -11.09375 Z M 13.4375 -4.875 "/></g></g></g><g fill="#746e6e" fill-opacity="1"><g transform="translate(111.636806, 205.716051)"><g><path d="M 15.53125 -4.90625 C 15.53125 -3.21875 16.148438 -1.875 17.390625 -0.875 L 15.53125 0.46875 L 12.53125 -2.203125 C 11.550781 -1.273438 10.671875 -0.601562 9.890625 -0.1875 C 9.109375 0.226562 8.300781 0.4375 7.46875 0.4375 C 6.632812 0.4375 5.898438 0.3125 5.265625 0.0625 C 4.640625 -0.175781 3.976562 -0.582031 3.28125 -1.15625 C 2.582031 -1.726562 2.019531 -2.628906 1.59375 -3.859375 C 1.164062 -5.097656 0.953125 -6.691406 0.953125 -8.640625 C 0.953125 -10.597656 1.53125 -12.472656 2.6875 -14.265625 C 3.851562 -16.054688 5.445312 -16.953125 7.46875 -16.953125 C 8.988281 -16.953125 10.640625 -16.390625 12.421875 -15.265625 L 12.421875 -25.015625 L 15.53125 -25.015625 Z M 12.421875 -3.703125 L 12.421875 -13.921875 C 11.117188 -14.773438 9.929688 -15.203125 8.859375 -15.203125 C 7.441406 -15.203125 6.304688 -14.535156 5.453125 -13.203125 C 4.597656 -11.867188 4.171875 -10.203125 4.171875 -8.203125 C 4.171875 -6.203125 4.484375 -4.597656 5.109375 -3.390625 C 5.734375 -2.179688 6.507812 -1.453125 7.4375 -1.203125 C 8.289062 -1.273438 9.125 -1.484375 9.9375 -1.828125 C 10.757812 -2.171875 11.378906 -2.519531 11.796875 -2.875 C 12.210938 -3.226562 12.421875 -3.503906 12.421875 -3.703125 Z M 12.421875 -3.703125 "/></g></g></g><g fill="#746e6e" fill-opacity="1"><g transform="translate(129.947352, 205.716051)"><g><path d="M 3.84375 -9.015625 C 3.84375 -6.367188 4.429688 -4.46875 5.609375 -3.3125 C 6.796875 -2.15625 8.238281 -1.578125 9.9375 -1.578125 C 11.632812 -1.578125 13.207031 -1.90625 14.65625 -2.5625 L 14.65625 -1.28125 C 12.644531 -0.132812 10.726562 0.4375 8.90625 0.4375 C 6.53125 0.4375 4.609375 -0.28125 3.140625 -1.71875 C 1.679688 -3.15625 0.953125 -5.242188 0.953125 -7.984375 C 0.953125 -10.722656 1.765625 -12.910156 3.390625 -14.546875 C 5.015625 -16.179688 6.972656 -17 9.265625 -17 C 11.046875 -17 12.535156 -16.296875 13.734375 -14.890625 C 14.929688 -13.484375 15.53125 -11.523438 15.53125 -9.015625 Z M 7.390625 -15.265625 C 6.535156 -14.859375 5.800781 -14.195312 5.1875 -13.28125 C 4.582031 -12.363281 4.179688 -11.304688 3.984375 -10.109375 L 12.5625 -10.109375 C 12.488281 -11.128906 12.25 -12.003906 11.84375 -12.734375 C 11.445312 -13.472656 10.96875 -14.015625 10.40625 -14.359375 C 9.40625 -14.960938 8.398438 -15.265625 7.390625 -15.265625 Z M 7.390625 -15.265625 "/></g></g></g><g fill="#746e6e" fill-opacity="1"><g transform="translate(147.122644, 205.716051)"><g><path d="M 21.53125 -17 C 24.414062 -17 25.859375 -14.8125 25.859375 -10.4375 L 25.859375 0 L 22.78125 0 L 22.78125 -10.734375 C 22.78125 -12.785156 22.390625 -14.03125 21.609375 -14.46875 C 21.210938 -14.6875 20.664062 -14.796875 19.96875 -14.796875 C 19.28125 -14.796875 18.535156 -14.582031 17.734375 -14.15625 C 16.941406 -13.726562 16.363281 -13.242188 16 -12.703125 L 16 0 L 12.890625 0 L 12.890625 -10.921875 C 12.890625 -12.210938 12.691406 -13.179688 12.296875 -13.828125 C 11.910156 -14.472656 11.335938 -14.796875 10.578125 -14.796875 C 9.828125 -14.796875 9.101562 -14.625 8.40625 -14.28125 C 7.707031 -13.9375 7.148438 -13.59375 6.734375 -13.25 C 6.316406 -12.914062 6.109375 -12.710938 6.109375 -12.640625 L 6.109375 0 L 3.046875 0 L 3.046875 -11.5 C 3.046875 -13.15625 2.421875 -14.488281 1.171875 -15.5 L 3.046875 -16.890625 L 5.96875 -14.203125 C 7.113281 -15.160156 8.113281 -15.863281 8.96875 -16.3125 C 9.820312 -16.769531 10.710938 -17 11.640625 -17 C 13.765625 -17 15.085938 -16.007812 15.609375 -14.03125 C 16.460938 -15.007812 17.4375 -15.75 18.53125 -16.25 C 19.632812 -16.75 20.632812 -17 21.53125 -17 Z M 21.53125 -17 "/></g></g></g><g fill="#746e6e" fill-opacity="1"><g transform="translate(175.613853, 205.716051)"><g><path d="M 2.75 0 L 2.75 -16.546875 L 5.78125 -16.546875 L 5.78125 0 Z M 2.375 -21.65625 C 2.375 -22.1875 2.550781 -22.632812 2.90625 -23 C 3.257812 -23.363281 3.695312 -23.546875 4.21875 -23.546875 C 4.75 -23.546875 5.203125 -23.363281 5.578125 -23 C 5.960938 -22.632812 6.15625 -22.191406 6.15625 -21.671875 C 6.15625 -21.160156 5.960938 -20.707031 5.578125 -20.3125 C 5.203125 -19.925781 4.757812 -19.734375 4.25 -19.734375 C 3.738281 -19.734375 3.296875 -19.921875 2.921875 -20.296875 C 2.554688 -20.679688 2.375 -21.132812 2.375 -21.65625 Z M 2.375 -21.65625 "/></g></g></g><g fill="#746e6e" fill-opacity="1"><g transform="translate(184.146567, 205.716051)"><g><path d="M 10.4375 -3.875 L 10.4375 -7.65625 C 8.675781 -7.53125 7.234375 -7.140625 6.109375 -6.484375 C 4.992188 -5.828125 4.4375 -5.117188 4.4375 -4.359375 C 4.4375 -3.597656 4.628906 -2.941406 5.015625 -2.390625 C 5.410156 -1.847656 5.910156 -1.46875 6.515625 -1.25 C 7.328125 -1.394531 8.179688 -1.796875 9.078125 -2.453125 C 9.984375 -3.109375 10.4375 -3.582031 10.4375 -3.875 Z M 13.4375 -4.875 C 13.4375 -3.132812 14.070312 -1.816406 15.34375 -0.921875 L 13.4375 0.46875 L 10.46875 -2.203125 C 8.539062 -0.441406 6.757812 0.4375 5.125 0.4375 C 4.050781 0.4375 3.128906 0.0976562 2.359375 -0.578125 C 1.585938 -1.265625 1.203125 -2.125 1.203125 -3.15625 C 1.203125 -4.195312 1.515625 -5.0625 2.140625 -5.75 C 2.765625 -6.4375 3.585938 -6.960938 4.609375 -7.328125 C 6.367188 -7.984375 8.3125 -8.394531 10.4375 -8.5625 L 10.4375 -12.015625 C 10.4375 -14.035156 9.265625 -15.046875 6.921875 -15.046875 C 5.578125 -15.046875 3.988281 -14.753906 2.15625 -14.171875 L 1.828125 -15.09375 C 2.316406 -15.476562 3.164062 -15.890625 4.375 -16.328125 C 5.582031 -16.773438 6.734375 -17 7.828125 -17 C 8.929688 -17 9.851562 -16.847656 10.59375 -16.546875 C 11.34375 -16.253906 11.894531 -15.925781 12.25 -15.5625 C 12.601562 -15.195312 12.878906 -14.695312 13.078125 -14.0625 C 13.273438 -13.425781 13.382812 -12.925781 13.40625 -12.5625 C 13.425781 -12.195312 13.4375 -11.707031 13.4375 -11.09375 Z M 13.4375 -4.875 "/></g></g></g><g fill="#746e6e" fill-opacity="1"><g transform="translate(200.406332, 205.716051)"><g/></g></g><g fill="#746e6e" fill-opacity="1"><g transform="translate(209.561605, 205.716051)"><g><path d="M 21.53125 -17 C 24.414062 -17 25.859375 -14.8125 25.859375 -10.4375 L 25.859375 0 L 22.78125 0 L 22.78125 -10.734375 C 22.78125 -12.785156 22.390625 -14.03125 21.609375 -14.46875 C 21.210938 -14.6875 20.664062 -14.796875 19.96875 -14.796875 C 19.28125 -14.796875 18.535156 -14.582031 17.734375 -14.15625 C 16.941406 -13.726562 16.363281 -13.242188 16 -12.703125 L 16 0 L 12.890625 0 L 12.890625 -10.921875 C 12.890625 -12.210938 12.691406 -13.179688 12.296875 -13.828125 C 11.910156 -14.472656 11.335938 -14.796875 10.578125 -14.796875 C 9.828125 -14.796875 9.101562 -14.625 8.40625 -14.28125 C 7.707031 -13.9375 7.148438 -13.59375 6.734375 -13.25 C 6.316406 -12.914062 6.109375 -12.710938 6.109375 -12.640625 L 6.109375 0 L 3.046875 0 L 3.046875 -11.5 C 3.046875 -13.15625 2.421875 -14.488281 1.171875 -15.5 L 3.046875 -16.890625 L 5.96875 -14.203125 C 7.113281 -15.160156 8.113281 -15.863281 8.96875 -16.3125 C 9.820312 -16.769531 10.710938 -17 11.640625 -17 C 13.765625 -17 15.085938 -16.007812 15.609375 -14.03125 C 16.460938 -15.007812 17.4375 -15.75 18.53125 -16.25 C 19.632812 -16.75 20.632812 -17 21.53125 -17 Z M 21.53125 -17 "/></g></g></g><g fill="#746e6e" fill-opacity="1"><g transform="translate(238.052814, 205.716051)"><g><path d="M 9.8125 -17 C 11.957031 -17 13.734375 -16.265625 15.140625 -14.796875 C 16.546875 -13.328125 17.25 -11.3125 17.25 -8.75 C 17.25 -7.113281 16.96875 -5.671875 16.40625 -4.421875 C 15.84375 -3.179688 15.109375 -2.21875 14.203125 -1.53125 C 12.472656 -0.21875 10.539062 0.4375 8.40625 0.4375 C 6.269531 0.4375 4.5 -0.289062 3.09375 -1.75 C 1.6875 -3.21875 0.984375 -5.234375 0.984375 -7.796875 C 0.984375 -9.429688 1.257812 -10.867188 1.8125 -12.109375 C 2.363281 -13.359375 3.085938 -14.328125 3.984375 -15.015625 C 5.722656 -16.335938 7.664062 -17 9.8125 -17 Z M 9.078125 -0.8125 C 10.148438 -0.8125 11.066406 -1.222656 11.828125 -2.046875 C 13.191406 -3.515625 13.875 -5.460938 13.875 -7.890625 C 13.875 -10.316406 13.457031 -12.207031 12.625 -13.5625 C 11.800781 -14.925781 10.445312 -15.609375 8.5625 -15.609375 C 7.175781 -15.066406 6.125 -14.117188 5.40625 -12.765625 C 4.6875 -11.410156 4.328125 -9.773438 4.328125 -7.859375 C 4.328125 -5.941406 4.71875 -4.285156 5.5 -2.890625 C 6.28125 -1.503906 7.472656 -0.8125 9.078125 -0.8125 Z M 9.078125 -0.8125 "/></g></g></g><g fill="#746e6e" fill-opacity="1"><g transform="translate(256.36336, 205.716051)"><g><path d="M 5.9375 -14.203125 C 6.957031 -15.179688 7.851562 -15.890625 8.625 -16.328125 C 9.394531 -16.773438 10.300781 -17 11.34375 -17 C 12.394531 -17 13.367188 -16.582031 14.265625 -15.75 C 15.160156 -14.914062 15.609375 -13.488281 15.609375 -11.46875 L 15.609375 0 L 12.484375 0 L 12.484375 -11.09375 C 12.484375 -12.289062 12.269531 -13.1875 11.84375 -13.78125 C 11.414062 -14.382812 10.679688 -14.6875 9.640625 -14.6875 C 8.609375 -14.6875 7.410156 -14.003906 6.046875 -12.640625 L 6.046875 0 L 2.9375 0 L 2.9375 -11.5 C 2.9375 -13.15625 2.3125 -14.488281 1.0625 -15.5 L 2.9375 -16.890625 Z M 5.9375 -14.203125 "/></g></g></g><g fill="#746e6e" fill-opacity="1"><g transform="translate(274.673906, 205.716051)"><g><path d="M 6.40625 -3.21875 C 6.40625 -2.488281 6.550781 -1.941406 6.84375 -1.578125 C 7.132812 -1.210938 7.625 -1.03125 8.3125 -1.03125 C 9 -1.03125 9.816406 -1.210938 10.765625 -1.578125 L 10.765625 -0.546875 C 9.347656 0.109375 8.078125 0.4375 6.953125 0.4375 C 5.835938 0.4375 4.953125 0.128906 4.296875 -0.484375 C 3.648438 -1.109375 3.328125 -2.082031 3.328125 -3.40625 L 3.328125 -15.234375 L 0.359375 -15.828125 L 0.359375 -16.546875 L 3.328125 -16.546875 L 3.328125 -17.875 L 6.40625 -20.109375 L 6.40625 -16.546875 L 10.765625 -16.546875 L 10.765625 -15.234375 L 6.40625 -15.234375 Z M 6.40625 -3.21875 "/></g></g></g><g fill="#746e6e" fill-opacity="1"><g transform="translate(286.722245, 205.716051)"><g><path d="M 6.1875 -15.453125 C 5.550781 -15.453125 5.03125 -15.210938 4.625 -14.734375 C 4.226562 -14.265625 4.03125 -13.726562 4.03125 -13.125 C 4.03125 -12.53125 4.316406 -11.957031 4.890625 -11.40625 C 5.460938 -10.851562 6.15625 -10.363281 6.96875 -9.9375 C 7.789062 -9.507812 8.601562 -9.0625 9.40625 -8.59375 C 10.21875 -8.132812 10.910156 -7.539062 11.484375 -6.8125 C 12.054688 -6.082031 12.34375 -5.265625 12.34375 -4.359375 C 12.34375 -2.992188 11.789062 -1.851562 10.6875 -0.9375 C 9.59375 -0.0195312 8.097656 0.4375 6.203125 0.4375 C 4.316406 0.4375 2.59375 0 1.03125 -0.875 L 1.03125 -2.265625 C 2.6875 -1.441406 4.1875 -1.03125 5.53125 -1.03125 C 6.875 -1.03125 7.847656 -1.296875 8.453125 -1.828125 C 9.066406 -2.367188 9.375 -2.984375 9.375 -3.671875 C 9.375 -4.367188 9.097656 -4.992188 8.546875 -5.546875 C 8.003906 -6.097656 7.332031 -6.582031 6.53125 -7 C 5.738281 -7.414062 4.953125 -7.851562 4.171875 -8.3125 C 3.390625 -8.78125 2.722656 -9.378906 2.171875 -10.109375 C 1.628906 -10.835938 1.359375 -11.722656 1.359375 -12.765625 C 1.359375 -13.804688 1.773438 -14.769531 2.609375 -15.65625 C 3.453125 -16.550781 4.753906 -17 6.515625 -17 C 8.273438 -17 9.960938 -16.679688 11.578125 -16.046875 L 11.203125 -13.625 C 9.398438 -14.601562 7.726562 -15.210938 6.1875 -15.453125 Z M 6.1875 -15.453125 "/></g></g></g><g fill="#746e6e" fill-opacity="1"><g transform="translate(300.345291, 205.716051)"><g><path d="M 3.84375 -9.015625 C 3.84375 -6.367188 4.429688 -4.46875 5.609375 -3.3125 C 6.796875 -2.15625 8.238281 -1.578125 9.9375 -1.578125 C 11.632812 -1.578125 13.207031 -1.90625 14.65625 -2.5625 L 14.65625 -1.28125 C 12.644531 -0.132812 10.726562 0.4375 8.90625 0.4375 C 6.53125 0.4375 4.609375 -0.28125 3.140625 -1.71875 C 1.679688 -3.15625 0.953125 -5.242188 0.953125 -7.984375 C 0.953125 -10.722656 1.765625 -12.910156 3.390625 -14.546875 C 5.015625 -16.179688 6.972656 -17 9.265625 -17 C 11.046875 -17 12.535156 -16.296875 13.734375 -14.890625 C 14.929688 -13.484375 15.53125 -11.523438 15.53125 -9.015625 Z M 7.390625 -15.265625 C 6.535156 -14.859375 5.800781 -14.195312 5.1875 -13.28125 C 4.582031 -12.363281 4.179688 -11.304688 3.984375 -10.109375 L 12.5625 -10.109375 C 12.488281 -11.128906 12.25 -12.003906 11.84375 -12.734375 C 11.445312 -13.472656 10.96875 -14.015625 10.40625 -14.359375 C 9.40625 -14.960938 8.398438 -15.265625 7.390625 -15.265625 Z M 7.390625 -15.265625 "/></g></g></g><g fill="#746e6e" fill-opacity="1"><g transform="translate(130.060144, 241.716049)"><g><path d="M 15.53125 -4.90625 C 15.53125 -3.21875 16.148438 -1.875 17.390625 -0.875 L 15.53125 0.46875 L 12.53125 -2.203125 C 11.550781 -1.273438 10.671875 -0.601562 9.890625 -0.1875 C 9.109375 0.226562 8.300781 0.4375 7.46875 0.4375 C 6.632812 0.4375 5.898438 0.3125 5.265625 0.0625 C 4.640625 -0.175781 3.976562 -0.582031 3.28125 -1.15625 C 2.582031 -1.726562 2.019531 -2.628906 1.59375 -3.859375 C 1.164062 -5.097656 0.953125 -6.691406 0.953125 -8.640625 C 0.953125 -10.597656 1.53125 -12.472656 2.6875 -14.265625 C 3.851562 -16.054688 5.445312 -16.953125 7.46875 -16.953125 C 8.988281 -16.953125 10.640625 -16.390625 12.421875 -15.265625 L 12.421875 -25.015625 L 15.53125 -25.015625 Z M 12.421875 -3.703125 L 12.421875 -13.921875 C 11.117188 -14.773438 9.929688 -15.203125 8.859375 -15.203125 C 7.441406 -15.203125 6.304688 -14.535156 5.453125 -13.203125 C 4.597656 -11.867188 4.171875 -10.203125 4.171875 -8.203125 C 4.171875 -6.203125 4.484375 -4.597656 5.109375 -3.390625 C 5.734375 -2.179688 6.507812 -1.453125 7.4375 -1.203125 C 8.289062 -1.273438 9.125 -1.484375 9.9375 -1.828125 C 10.757812 -2.171875 11.378906 -2.519531 11.796875 -2.875 C 12.210938 -3.226562 12.421875 -3.503906 12.421875 -3.703125 Z M 12.421875 -3.703125 "/></g></g></g><g fill="#746e6e" fill-opacity="1"><g transform="translate(148.37069, 241.716049)"><g><path d="M 3.84375 -9.015625 C 3.84375 -6.367188 4.429688 -4.46875 5.609375 -3.3125 C 6.796875 -2.15625 8.238281 -1.578125 9.9375 -1.578125 C 11.632812 -1.578125 13.207031 -1.90625 14.65625 -2.5625 L 14.65625 -1.28125 C 12.644531 -0.132812 10.726562 0.4375 8.90625 0.4375 C 6.53125 0.4375 4.609375 -0.28125 3.140625 -1.71875 C 1.679688 -3.15625 0.953125 -5.242188 0.953125 -7.984375 C 0.953125 -10.722656 1.765625 -12.910156 3.390625 -14.546875 C 5.015625 -16.179688 6.972656 -17 9.265625 -17 C 11.046875 -17 12.535156 -16.296875 13.734375 -14.890625 C 14.929688 -13.484375 15.53125 -11.523438 15.53125 -9.015625 Z M 7.390625 -15.265625 C 6.535156 -14.859375 5.800781 -14.195312 5.1875 -13.28125 C 4.582031 -12.363281 4.179688 -11.304688 3.984375 -10.109375 L 12.5625 -10.109375 C 12.488281 -11.128906 12.25 -12.003906 11.84375 -12.734375 C 11.445312 -13.472656 10.96875 -14.015625 10.40625 -14.359375 C 9.40625 -14.960938 8.398438 -15.265625 7.390625 -15.265625 Z M 7.390625 -15.265625 "/></g></g></g><g fill="#746e6e" fill-opacity="1"><g transform="translate(165.545982, 241.716049)"><g><path d="M 5.828125 -25.015625 L 5.828125 0 L 2.75 0 L 2.75 -25.015625 Z M 5.828125 -25.015625 "/></g></g></g><g fill="#746e6e" fill-opacity="1"><g transform="translate(174.115317, 241.716049)"><g><path d="M 4.828125 -3.28125 C 4.828125 -2.820312 5.175781 -2.507812 5.875 -2.34375 C 6.570312 -2.175781 7.910156 -2.09375 9.890625 -2.09375 C 11.867188 -2.09375 13.453125 -1.867188 14.640625 -1.421875 C 15.835938 -0.984375 16.4375 -0.15625 16.4375 1.0625 C 16.4375 2.863281 15.550781 4.488281 13.78125 5.9375 C 12.019531 7.394531 9.851562 8.125 7.28125 8.125 C 5.425781 8.125 3.90625 7.773438 2.71875 7.078125 C 1.539062 6.390625 0.953125 5.398438 0.953125 4.109375 C 0.953125 2.273438 1.953125 0.914062 3.953125 0.03125 C 2.828125 -0.382812 2.265625 -1.15625 2.265625 -2.28125 C 2.265625 -3.414062 3.144531 -4.65625 4.90625 -6 C 3.070312 -6.957031 2.15625 -8.515625 2.15625 -10.671875 C 2.15625 -12.835938 2.832031 -14.429688 4.1875 -15.453125 C 5.539062 -16.484375 7.0625 -17 8.75 -17 C 9.945312 -17 11.097656 -16.664062 12.203125 -16 L 15.421875 -16.921875 L 16.15625 -15.34375 L 13.875 -14.203125 C 14.34375 -13.398438 14.578125 -12.460938 14.578125 -11.390625 C 14.578125 -10.316406 14.363281 -9.367188 13.9375 -8.546875 C 13.507812 -7.734375 12.953125 -7.109375 12.265625 -6.671875 C 10.898438 -5.785156 9.425781 -5.34375 7.84375 -5.34375 C 7.59375 -5.34375 7.25 -5.367188 6.8125 -5.421875 C 6.394531 -5.296875 5.957031 -5.023438 5.5 -4.609375 C 5.050781 -4.191406 4.828125 -3.75 4.828125 -3.28125 Z M 11.6875 -11.0625 C 11.6875 -12.332031 11.347656 -13.4375 10.671875 -14.375 C 10.003906 -15.3125 9.175781 -15.78125 8.1875 -15.78125 C 7.195312 -15.78125 6.40625 -15.351562 5.8125 -14.5 C 5.226562 -13.644531 4.9375 -12.539062 4.9375 -11.1875 C 4.9375 -9.832031 5.265625 -8.707031 5.921875 -7.8125 C 6.585938 -6.925781 7.382812 -6.484375 8.3125 -6.484375 C 10.5625 -6.484375 11.6875 -8.007812 11.6875 -11.0625 Z M 7.875 6.453125 C 9.90625 6.453125 11.625 5.890625 13.03125 4.765625 C 14.445312 3.640625 15.15625 2.515625 15.15625 1.390625 C 13.914062 0.878906 12.175781 0.625 9.9375 0.625 C 7.707031 0.625 6.164062 0.550781 5.3125 0.40625 C 4.238281 1.3125 3.703125 2.273438 3.703125 3.296875 C 3.703125 5.398438 5.09375 6.453125 7.875 6.453125 Z M 7.875 6.453125 "/></g></g></g><g fill="#746e6e" fill-opacity="1"><g transform="translate(192.059652, 241.716049)"><g><path d="M 10.4375 -3.875 L 10.4375 -7.65625 C 8.675781 -7.53125 7.234375 -7.140625 6.109375 -6.484375 C 4.992188 -5.828125 4.4375 -5.117188 4.4375 -4.359375 C 4.4375 -3.597656 4.628906 -2.941406 5.015625 -2.390625 C 5.410156 -1.847656 5.910156 -1.46875 6.515625 -1.25 C 7.328125 -1.394531 8.179688 -1.796875 9.078125 -2.453125 C 9.984375 -3.109375 10.4375 -3.582031 10.4375 -3.875 Z M 13.4375 -4.875 C 13.4375 -3.132812 14.070312 -1.816406 15.34375 -0.921875 L 13.4375 0.46875 L 10.46875 -2.203125 C 8.539062 -0.441406 6.757812 0.4375 5.125 0.4375 C 4.050781 0.4375 3.128906 0.0976562 2.359375 -0.578125 C 1.585938 -1.265625 1.203125 -2.125 1.203125 -3.15625 C 1.203125 -4.195312 1.515625 -5.0625 2.140625 -5.75 C 2.765625 -6.4375 3.585938 -6.960938 4.609375 -7.328125 C 6.367188 -7.984375 8.3125 -8.394531 10.4375 -8.5625 L 10.4375 -12.015625 C 10.4375 -14.035156 9.265625 -15.046875 6.921875 -15.046875 C 5.578125 -15.046875 3.988281 -14.753906 2.15625 -14.171875 L 1.828125 -15.09375 C 2.316406 -15.476562 3.164062 -15.890625 4.375 -16.328125 C 5.582031 -16.773438 6.734375 -17 7.828125 -17 C 8.929688 -17 9.851562 -16.847656 10.59375 -16.546875 C 11.34375 -16.253906 11.894531 -15.925781 12.25 -15.5625 C 12.601562 -15.195312 12.878906 -14.695312 13.078125 -14.0625 C 13.273438 -13.425781 13.382812 -12.925781 13.40625 -12.5625 C 13.425781 -12.195312 13.4375 -11.707031 13.4375 -11.09375 Z M 13.4375 -4.875 "/></g></g></g><g fill="#746e6e" fill-opacity="1"><g transform="translate(208.319417, 241.716049)"><g><path d="M 15.53125 -4.90625 C 15.53125 -3.21875 16.148438 -1.875 17.390625 -0.875 L 15.53125 0.46875 L 12.53125 -2.203125 C 11.550781 -1.273438 10.671875 -0.601562 9.890625 -0.1875 C 9.109375 0.226562 8.300781 0.4375 7.46875 0.4375 C 6.632812 0.4375 5.898438 0.3125 5.265625 0.0625 C 4.640625 -0.175781 3.976562 -0.582031 3.28125 -1.15625 C 2.582031 -1.726562 2.019531 -2.628906 1.59375 -3.859375 C 1.164062 -5.097656 0.953125 -6.691406 0.953125 -8.640625 C 0.953125 -10.597656 1.53125 -12.472656 2.6875 -14.265625 C 3.851562 -16.054688 5.445312 -16.953125 7.46875 -16.953125 C 8.988281 -16.953125 10.640625 -16.390625 12.421875 -15.265625 L 12.421875 -25.015625 L 15.53125 -25.015625 Z M 12.421875 -3.703125 L 12.421875 -13.921875 C 11.117188 -14.773438 9.929688 -15.203125 8.859375 -15.203125 C 7.441406 -15.203125 6.304688 -14.535156 5.453125 -13.203125 C 4.597656 -11.867188 4.171875 -10.203125 4.171875 -8.203125 C 4.171875 -6.203125 4.484375 -4.597656 5.109375 -3.390625 C 5.734375 -2.179688 6.507812 -1.453125 7.4375 -1.203125 C 8.289062 -1.273438 9.125 -1.484375 9.9375 -1.828125 C 10.757812 -2.171875 11.378906 -2.519531 11.796875 -2.875 C 12.210938 -3.226562 12.421875 -3.503906 12.421875 -3.703125 Z M 12.421875 -3.703125 "/></g></g></g><g fill="#746e6e" fill-opacity="1"><g transform="translate(226.629963, 241.716049)"><g><path d="M 9.8125 -17 C 11.957031 -17 13.734375 -16.265625 15.140625 -14.796875 C 16.546875 -13.328125 17.25 -11.3125 17.25 -8.75 C 17.25 -7.113281 16.96875 -5.671875 16.40625 -4.421875 C 15.84375 -3.179688 15.109375 -2.21875 14.203125 -1.53125 C 12.472656 -0.21875 10.539062 0.4375 8.40625 0.4375 C 6.269531 0.4375 4.5 -0.289062 3.09375 -1.75 C 1.6875 -3.21875 0.984375 -5.234375 0.984375 -7.796875 C 0.984375 -9.429688 1.257812 -10.867188 1.8125 -12.109375 C 2.363281 -13.359375 3.085938 -14.328125 3.984375 -15.015625 C 5.722656 -16.335938 7.664062 -17 9.8125 -17 Z M 9.078125 -0.8125 C 10.148438 -0.8125 11.066406 -1.222656 11.828125 -2.046875 C 13.191406 -3.515625 13.875 -5.460938 13.875 -7.890625 C 13.875 -10.316406 13.457031 -12.207031 12.625 -13.5625 C 11.800781 -14.925781 10.445312 -15.609375 8.5625 -15.609375 C 7.175781 -15.066406 6.125 -14.117188 5.40625 -12.765625 C 4.6875 -11.410156 4.328125 -9.773438 4.328125 -7.859375 C 4.328125 -5.941406 4.71875 -4.285156 5.5 -2.890625 C 6.28125 -1.503906 7.472656 -0.8125 9.078125 -0.8125 Z M 9.078125 -0.8125 "/></g></g></g><g fill="#717e74" fill-opacity="1"><g transform="translate(113.39327, 262.28723)"><g><path d="M 0.9375 -6.296875 L 1.84375 -6.296875 L 1.84375 -0.78125 L 5.25 -0.78125 L 5.25 0 L 0.9375 0 Z M 0.9375 -6.296875 "/></g></g></g><g fill="#717e74" fill-opacity="1"><g transform="translate(121.124308, 262.28723)"><g><path d="M 0.5625 -6.296875 L 1.328125 -6.296875 L 1.265625 -3.875 L 0.625 -3.875 Z M 0.5625 -6.296875 "/></g></g></g><g fill="#717e74" fill-opacity="1"><g transform="translate(125.399323, 262.28723)"><g><path d="M 4.953125 -1.578125 L 1.609375 -1.578125 L 0.921875 0 L -0.015625 0 L 2.84375 -6.296875 L 3.734375 -6.296875 L 6.59375 0 L 5.65625 0 Z M 4.640625 -2.296875 L 3.28125 -5.375 L 1.921875 -2.296875 Z M 4.640625 -2.296875 "/></g></g></g><g fill="#717e74" fill-opacity="1"><g transform="translate(134.372366, 262.28723)"><g><path d="M 3.765625 0.078125 C 3.128906 0.078125 2.554688 -0.0625 2.046875 -0.34375 C 1.546875 -0.625 1.148438 -1.007812 0.859375 -1.5 C 0.578125 -1.988281 0.4375 -2.539062 0.4375 -3.15625 C 0.4375 -3.757812 0.578125 -4.304688 0.859375 -4.796875 C 1.148438 -5.285156 1.550781 -5.671875 2.0625 -5.953125 C 2.570312 -6.234375 3.140625 -6.375 3.765625 -6.375 C 4.265625 -6.375 4.71875 -6.289062 5.125 -6.125 C 5.53125 -5.957031 5.878906 -5.710938 6.171875 -5.390625 L 5.578125 -4.828125 C 5.109375 -5.328125 4.519531 -5.578125 3.8125 -5.578125 C 3.34375 -5.578125 2.914062 -5.46875 2.53125 -5.25 C 2.15625 -5.039062 1.859375 -4.75 1.640625 -4.375 C 1.429688 -4.007812 1.328125 -3.601562 1.328125 -3.15625 C 1.328125 -2.695312 1.429688 -2.28125 1.640625 -1.90625 C 1.859375 -1.539062 2.15625 -1.253906 2.53125 -1.046875 C 2.914062 -0.835938 3.34375 -0.734375 3.8125 -0.734375 C 4.507812 -0.734375 5.097656 -0.984375 5.578125 -1.484375 L 6.171875 -0.921875 C 5.878906 -0.597656 5.523438 -0.347656 5.109375 -0.171875 C 4.703125 -0.00390625 4.253906 0.078125 3.765625 0.078125 Z M 3.765625 0.078125 "/></g></g></g><g fill="#717e74" fill-opacity="1"><g transform="translate(143.264407, 262.28723)"><g><path d="M 4.953125 -1.578125 L 1.609375 -1.578125 L 0.921875 0 L -0.015625 0 L 2.84375 -6.296875 L 3.734375 -6.296875 L 6.59375 0 L 5.65625 0 Z M 4.640625 -2.296875 L 3.28125 -5.375 L 1.921875 -2.296875 Z M 4.640625 -2.296875 "/></g></g></g><g fill="#717e74" fill-opacity="1"><g transform="translate(152.23745, 262.28723)"><g><path d="M 0.9375 -6.296875 L 3.59375 -6.296875 C 4.257812 -6.296875 4.847656 -6.164062 5.359375 -5.90625 C 5.878906 -5.644531 6.28125 -5.273438 6.5625 -4.796875 C 6.851562 -4.316406 7 -3.769531 7 -3.15625 C 7 -2.53125 6.851562 -1.976562 6.5625 -1.5 C 6.28125 -1.03125 5.878906 -0.660156 5.359375 -0.390625 C 4.847656 -0.128906 4.257812 0 3.59375 0 L 0.9375 0 Z M 3.546875 -0.78125 C 4.054688 -0.78125 4.503906 -0.878906 4.890625 -1.078125 C 5.273438 -1.273438 5.570312 -1.550781 5.78125 -1.90625 C 6 -2.269531 6.109375 -2.6875 6.109375 -3.15625 C 6.109375 -3.625 6 -4.035156 5.78125 -4.390625 C 5.570312 -4.742188 5.273438 -5.019531 4.890625 -5.21875 C 4.503906 -5.414062 4.054688 -5.515625 3.546875 -5.515625 L 1.84375 -5.515625 L 1.84375 -0.78125 Z M 3.546875 -0.78125 "/></g></g></g><g fill="#717e74" fill-opacity="1"><g transform="translate(162.056497, 262.28723)"><g><path d="M 5.515625 -0.78125 L 5.515625 0 L 0.9375 0 L 0.9375 -6.296875 L 5.390625 -6.296875 L 5.390625 -5.515625 L 1.84375 -5.515625 L 1.84375 -3.578125 L 5 -3.578125 L 5 -2.8125 L 1.84375 -2.8125 L 1.84375 -0.78125 Z M 5.515625 -0.78125 "/></g></g></g><g fill="#717e74" fill-opacity="1"><g transform="translate(170.471538, 262.28723)"><g><path d="M 6.78125 0 L 6.78125 -4.59375 L 4.5 -0.765625 L 4.09375 -0.765625 L 1.8125 -4.5625 L 1.8125 0 L 0.9375 0 L 0.9375 -6.296875 L 1.6875 -6.296875 L 4.3125 -1.875 L 6.90625 -6.296875 L 7.640625 -6.296875 L 7.65625 0 Z M 6.78125 0 "/></g></g></g><g fill="#717e74" fill-opacity="1"><g transform="translate(181.4516, 262.28723)"><g><path d="M 0.9375 -6.296875 L 1.84375 -6.296875 L 1.84375 0 L 0.9375 0 Z M 0.9375 -6.296875 "/></g></g></g><g fill="#717e74" fill-opacity="1"><g transform="translate(186.626623, 262.28723)"><g><path d="M 4.953125 -1.578125 L 1.609375 -1.578125 L 0.921875 0 L -0.015625 0 L 2.84375 -6.296875 L 3.734375 -6.296875 L 6.59375 0 L 5.65625 0 Z M 4.640625 -2.296875 L 3.28125 -5.375 L 1.921875 -2.296875 Z M 4.640625 -2.296875 "/></g></g></g><g fill="#717e74" fill-opacity="1"><g transform="translate(195.599666, 262.28723)"><g/></g></g><g fill="#717e74" fill-opacity="1"><g transform="translate(200.405686, 262.28723)"><g><path d="M 0.9375 -6.296875 L 3.59375 -6.296875 C 4.257812 -6.296875 4.847656 -6.164062 5.359375 -5.90625 C 5.878906 -5.644531 6.28125 -5.273438 6.5625 -4.796875 C 6.851562 -4.316406 7 -3.769531 7 -3.15625 C 7 -2.53125 6.851562 -1.976562 6.5625 -1.5 C 6.28125 -1.03125 5.878906 -0.660156 5.359375 -0.390625 C 4.847656 -0.128906 4.257812 0 3.59375 0 L 0.9375 0 Z M 3.546875 -0.78125 C 4.054688 -0.78125 4.503906 -0.878906 4.890625 -1.078125 C 5.273438 -1.273438 5.570312 -1.550781 5.78125 -1.90625 C 6 -2.269531 6.109375 -2.6875 6.109375 -3.15625 C 6.109375 -3.625 6 -4.035156 5.78125 -4.390625 C 5.570312 -4.742188 5.273438 -5.019531 4.890625 -5.21875 C 4.503906 -5.414062 4.054688 -5.515625 3.546875 -5.515625 L 1.84375 -5.515625 L 1.84375 -0.78125 Z M 3.546875 -0.78125 "/></g></g></g><g fill="#717e74" fill-opacity="1"><g transform="translate(210.224734, 262.28723)"><g><path d="M 5.515625 -0.78125 L 5.515625 0 L 0.9375 0 L 0.9375 -6.296875 L 5.390625 -6.296875 L 5.390625 -5.515625 L 1.84375 -5.515625 L 1.84375 -3.578125 L 5 -3.578125 L 5 -2.8125 L 1.84375 -2.8125 L 1.84375 -0.78125 Z M 5.515625 -0.78125 "/></g></g></g><g fill="#717e74" fill-opacity="1"><g transform="translate(218.639768, 262.28723)"><g/></g></g><g fill="#717e74" fill-opacity="1"><g transform="translate(223.445783, 262.28723)"><g><path d="M 2.78125 0.078125 C 2.300781 0.078125 1.84375 0.00390625 1.40625 -0.140625 C 0.96875 -0.296875 0.625 -0.488281 0.375 -0.71875 L 0.703125 -1.421875 C 0.941406 -1.203125 1.25 -1.023438 1.625 -0.890625 C 2 -0.753906 2.382812 -0.6875 2.78125 -0.6875 C 3.300781 -0.6875 3.691406 -0.773438 3.953125 -0.953125 C 4.210938 -1.128906 4.34375 -1.367188 4.34375 -1.671875 C 4.34375 -1.878906 4.269531 -2.050781 4.125 -2.1875 C 3.988281 -2.320312 3.816406 -2.425781 3.609375 -2.5 C 3.398438 -2.570312 3.109375 -2.65625 2.734375 -2.75 C 2.253906 -2.863281 1.867188 -2.976562 1.578125 -3.09375 C 1.285156 -3.207031 1.035156 -3.378906 0.828125 -3.609375 C 0.617188 -3.847656 0.515625 -4.171875 0.515625 -4.578125 C 0.515625 -4.910156 0.601562 -5.210938 0.78125 -5.484375 C 0.957031 -5.753906 1.226562 -5.96875 1.59375 -6.125 C 1.957031 -6.289062 2.40625 -6.375 2.9375 -6.375 C 3.300781 -6.375 3.664062 -6.320312 4.03125 -6.21875 C 4.394531 -6.125 4.703125 -5.988281 4.953125 -5.8125 L 4.65625 -5.09375 C 4.394531 -5.257812 4.113281 -5.382812 3.8125 -5.46875 C 3.507812 -5.5625 3.21875 -5.609375 2.9375 -5.609375 C 2.425781 -5.609375 2.039062 -5.515625 1.78125 -5.328125 C 1.53125 -5.140625 1.40625 -4.898438 1.40625 -4.609375 C 1.40625 -4.390625 1.476562 -4.210938 1.625 -4.078125 C 1.769531 -3.941406 1.945312 -3.835938 2.15625 -3.765625 C 2.363281 -3.691406 2.65625 -3.613281 3.03125 -3.53125 C 3.5 -3.414062 3.875 -3.300781 4.15625 -3.1875 C 4.445312 -3.070312 4.695312 -2.894531 4.90625 -2.65625 C 5.113281 -2.425781 5.21875 -2.113281 5.21875 -1.71875 C 5.21875 -1.382812 5.128906 -1.082031 4.953125 -0.8125 C 4.773438 -0.539062 4.5 -0.320312 4.125 -0.15625 C 3.757812 0 3.3125 0.078125 2.78125 0.078125 Z M 2.78125 0.078125 "/></g></g></g><g fill="#717e74" fill-opacity="1"><g transform="translate(231.41982, 262.28723)"><g><path d="M 3.5625 0.078125 C 2.71875 0.078125 2.0625 -0.160156 1.59375 -0.640625 C 1.125 -1.128906 0.890625 -1.820312 0.890625 -2.71875 L 0.890625 -6.296875 L 1.796875 -6.296875 L 1.796875 -2.75 C 1.796875 -1.40625 2.382812 -0.734375 3.5625 -0.734375 C 4.132812 -0.734375 4.570312 -0.898438 4.875 -1.234375 C 5.1875 -1.566406 5.34375 -2.070312 5.34375 -2.75 L 5.34375 -6.296875 L 6.21875 -6.296875 L 6.21875 -2.71875 C 6.21875 -1.8125 5.984375 -1.117188 5.515625 -0.640625 C 5.046875 -0.160156 4.394531 0.078125 3.5625 0.078125 Z M 4.109375 -7.984375 L 5.21875 -7.984375 L 3.703125 -6.8125 L 2.890625 -6.8125 Z M 4.109375 -7.984375 "/></g></g></g><g fill="#717e74" fill-opacity="1"><g transform="translate(240.923863, 262.28723)"><g><path d="M 5.15625 0 L 3.796875 -1.9375 C 3.628906 -1.925781 3.5 -1.921875 3.40625 -1.921875 L 1.84375 -1.921875 L 1.84375 0 L 0.9375 0 L 0.9375 -6.296875 L 3.40625 -6.296875 C 4.21875 -6.296875 4.859375 -6.097656 5.328125 -5.703125 C 5.796875 -5.316406 6.03125 -4.785156 6.03125 -4.109375 C 6.03125 -3.617188 5.910156 -3.203125 5.671875 -2.859375 C 5.429688 -2.515625 5.085938 -2.265625 4.640625 -2.109375 L 6.140625 0 Z M 3.375 -2.6875 C 3.945312 -2.6875 4.378906 -2.804688 4.671875 -3.046875 C 4.972656 -3.296875 5.125 -3.648438 5.125 -4.109375 C 5.125 -4.554688 4.972656 -4.898438 4.671875 -5.140625 C 4.378906 -5.390625 3.945312 -5.515625 3.375 -5.515625 L 1.84375 -5.515625 L 1.84375 -2.6875 Z M 3.375 -2.6875 "/></g></g></g><g fill="#717e74" fill-opacity="1"><g transform="translate(249.851902, 262.28723)"><g><path d="M 0.9375 -6.296875 L 1.84375 -6.296875 L 1.84375 0 L 0.9375 0 Z M 0.9375 -6.296875 "/></g></g></g><g fill="#717e74" fill-opacity="1"><g transform="translate(255.02692, 262.28723)"><g><path d="M 4.953125 -1.578125 L 1.609375 -1.578125 L 0.921875 0 L -0.015625 0 L 2.84375 -6.296875 L 3.734375 -6.296875 L 6.59375 0 L 5.65625 0 Z M 4.640625 -2.296875 L 3.28125 -5.375 L 1.921875 -2.296875 Z M 4.640625 -2.296875 "/></g></g></g></svg>